<?xml version="1.0" encoding="UTF-8"?>
<svg xmlns="http://www.w3.org/2000/svg" xmlns:xlink="http://www.w3.org/1999/xlink" width="626.58pt" height="240.76pt" viewBox="0 0 626.58 240.76" version="1.1">
<defs>
<clipPath id="clip1">
  <path d="M 0 0 L 626.578125 0 L 626.578125 240.761719 L 0 240.761719 Z M 0 0 "/>
</clipPath>
</defs>
<g id="surface1">
<g clip-path="url(#clip1)" clip-rule="nonzero">
<path style=" stroke:none;fill-rule:nonzero;fill:rgb(100%,78.038025%,0%);fill-opacity:1;" d="M 0 240.761719 L 626.585938 240.761719 L 626.585938 0 L 0 0 Z M 0 240.761719 "/>
</g>
<path style=" stroke:none;fill-rule:nonzero;fill:rgb(13.299561%,11.799622%,12.199402%);fill-opacity:1;" d="M 379.894531 80.308594 C 377.871094 80.308594 375.746094 80.75 374.355469 81.28125 L 374.355469 106.832031 C 375.425781 107.183594 377.449219 107.449219 379.472656 107.449219 C 386.707031 107.449219 390.964844 102.394531 390.964844 93.523438 C 390.964844 85.097656 386.921875 80.308594 379.894531 80.308594 M 378.296875 118.808594 C 369.785156 118.808594 361.589844 117.210938 356.792969 115.347656 L 356.792969 48.105469 L 374.355469 48.105469 L 374.355469 70.730469 C 376.597656 69.929688 380.425781 69.308594 383.410156 69.308594 C 398.3125 69.308594 408.53125 77.648438 408.53125 92.285156 C 408.53125 110.203125 397.78125 118.808594 378.296875 118.808594 "/>
<path style=" stroke:none;fill-rule:nonzero;fill:rgb(13.299561%,11.799622%,12.199402%);fill-opacity:1;" d="M 443.65625 95.746094 C 434.183594 96.097656 427.054688 96.988281 427.054688 102.664063 C 427.054688 106.566406 430.992188 108.695313 437.273438 108.695313 C 439.71875 108.695313 442.488281 108.339844 443.65625 107.984375 Z M 437.804688 118.808594 C 419.707031 118.808594 410.765625 113.21875 410.765625 103.019531 C 410.765625 90.332031 426.308594 87.40625 443.65625 86.605469 L 443.65625 84.742188 C 443.65625 80.933594 440.464844 79.15625 434.507813 79.15625 C 428.96875 79.15625 422.367188 80.664063 418.21875 82.085938 L 413.960938 72.324219 C 419.066406 70.636719 426.167969 68.527344 436.636719 68.527344 C 452.285156 68.527344 460.160156 73.832031 460.160156 86.515625 L 460.160156 115.347656 C 455.800781 117.210938 446.960938 118.808594 437.804688 118.808594 "/>
<path style=" stroke:none;fill-rule:nonzero;fill:rgb(13.299561%,11.799622%,12.199402%);fill-opacity:1;" d="M 499.121094 117.742188 L 499.121094 86.695313 C 499.121094 82.703125 496.859375 80.082031 490.578125 80.082031 C 487.320313 80.082031 484.433594 81.28125 484.433594 81.28125 L 484.433594 117.742188 L 466.867188 117.742188 L 466.867188 72.324219 C 473.253906 70.285156 480.808594 68.527344 490.816406 68.527344 C 508.808594 68.527344 516.6875 74.632813 516.6875 85.007813 L 516.6875 117.742188 "/>
<path style=" stroke:none;fill-rule:nonzero;fill:rgb(13.299561%,11.799622%,12.199402%);fill-opacity:1;" d="M 558.628906 117.742188 L 541.066406 93.882813 L 540.851563 93.882813 L 540.851563 117.742188 L 523.496094 117.742188 L 523.496094 48.105469 L 540.851563 48.105469 L 540.851563 90.417969 L 541.066406 90.417969 L 556.929688 69.929688 L 576.726563 69.929688 L 558.84375 92.195313 L 578.21875 117.742188 "/>
<path style=" stroke:none;fill-rule:nonzero;fill:rgb(13.299561%,11.799622%,12.199402%);fill-opacity:1;" d="M 323.75 136.816406 L 305.335938 136.816406 L 313.953125 117.738281 L 292.347656 69.929688 L 311.453125 69.929688 L 323.109375 103.890625 L 334.65625 69.929688 L 353.769531 69.929688 "/>
<path style=" stroke:none;fill-rule:nonzero;fill:rgb(13.299561%,11.799622%,12.199402%);fill-opacity:1;" d="M 232.386719 53.519531 L 211.941406 53.519531 L 198.425781 93.191406 L 184.910156 53.519531 L 164.46875 53.519531 L 155.203125 117.742188 L 171.921875 117.742188 L 177.242188 73.597656 L 192.890625 117.742188 L 203.960938 117.742188 L 219.609375 73.597656 L 224.933594 117.742188 L 241.648438 117.742188 "/>
<path style=" stroke:none;fill-rule:nonzero;fill:rgb(13.299561%,11.799622%,12.199402%);fill-opacity:1;" d="M 276.757813 95.746094 C 267.285156 96.097656 260.15625 96.988281 260.15625 102.664063 C 260.15625 106.566406 264.09375 108.695313 270.375 108.695313 C 272.820313 108.695313 275.589844 108.339844 276.757813 107.984375 Z M 270.90625 118.808594 C 252.808594 118.808594 243.867188 113.21875 243.867188 103.019531 C 243.867188 90.332031 259.410156 87.40625 276.757813 86.605469 L 276.757813 84.742188 C 276.757813 80.933594 273.566406 79.15625 267.609375 79.15625 C 262.070313 79.15625 255.46875 80.664063 251.320313 82.085938 L 247.0625 72.324219 C 252.171875 70.636719 260.796875 68.527344 269.734375 68.527344 C 285.386719 68.527344 293.261719 73.832031 293.261719 86.515625 L 293.261719 115.347656 C 288.898438 117.210938 280.0625 118.808594 270.90625 118.808594 "/>
<path style=" stroke:none;fill-rule:nonzero;fill:rgb(100%,78.038025%,0%);fill-opacity:1;" d="M 134.816406 85.597656 C 134.816406 112.765625 112.796875 134.78125 85.628906 134.78125 C 58.460938 134.78125 36.441406 112.765625 36.441406 85.597656 C 36.441406 58.429688 58.460938 36.40625 85.628906 36.40625 C 112.796875 36.40625 134.816406 58.429688 134.816406 85.597656 "/>
<path style=" stroke:none;fill-rule:nonzero;fill:rgb(13.299561%,11.799622%,12.199402%);fill-opacity:1;" d="M 85.628906 134.773438 C 58.460938 134.773438 36.441406 112.753906 36.441406 85.585938 C 36.441406 58.417969 58.460938 36.394531 85.628906 36.394531 C 112.796875 36.394531 134.816406 58.417969 134.816406 85.585938 C 134.816406 112.753906 112.796875 134.773438 85.628906 134.773438 M 85.628906 32.113281 C 56.09375 32.113281 32.152344 56.046875 32.152344 85.585938 C 32.152344 115.121094 56.09375 139.054688 85.628906 139.054688 C 115.164063 139.054688 139.105469 115.121094 139.105469 85.585938 C 139.105469 56.046875 115.164063 32.113281 85.628906 32.113281 "/>
<path style=" stroke:none;fill-rule:nonzero;fill:rgb(13.299561%,11.799622%,12.199402%);fill-opacity:1;" d="M 64.292969 83.132813 C 60.464844 82.160156 57.101563 86.632813 55.230469 90.03125 C 55.878906 85.398438 61.5625 77.824219 64.292969 83.132813 "/>
<path style=" stroke:none;fill-rule:nonzero;fill:rgb(13.299561%,11.799622%,12.199402%);fill-opacity:1;" d="M 55.882813 83.195313 C 57.171875 78.792969 60.207031 77.179688 61.820313 78.472656 C 59.625 79.183594 58.011719 80.472656 55.882813 83.195313 "/>
<path style=" stroke:none;fill-rule:nonzero;fill:rgb(13.299561%,11.799622%,12.199402%);fill-opacity:1;" d="M 65.652344 90.257813 C 67.609375 88.589844 67.417969 86.125 64.363281 85.324219 C 62.101563 84.746094 57.234375 88.824219 56.714844 93.359375 C 58.65625 90.839844 64.292969 86.246094 65.652344 90.257813 "/>
<path style=" stroke:none;fill-rule:nonzero;fill:rgb(13.299561%,11.799622%,12.199402%);fill-opacity:1;" d="M 96.351563 101.976563 C 96.695313 96.167969 91.078125 93.460938 90 87.546875 C 88.945313 81.613281 98.78125 72.132813 92.558594 62.429688 C 104.296875 71.882813 95.101563 77.472656 101.019531 85.335938 C 98.738281 84.65625 96.457031 82.605469 95.773438 81.539063 C 92.476563 85.878906 103.863281 91.839844 96.351563 101.976563 "/>
<path style=" stroke:none;fill-rule:nonzero;fill:rgb(13.299561%,11.799622%,12.199402%);fill-opacity:1;" d="M 77.472656 55.296875 C 78.851563 55.304688 81.238281 56.265625 80.269531 57.382813 C 77.015625 60.417969 72.625 59.191406 69.140625 62.242188 C 70.5625 58.417969 76.933594 57.878906 77.472656 55.296875 "/>
<path style=" stroke:none;fill-rule:nonzero;fill:rgb(13.299561%,11.799622%,12.199402%);fill-opacity:1;" d="M 73.464844 68.078125 C 73.039063 68.078125 72.644531 67.480469 72.542969 66.707031 C 73.097656 68.148438 74.5 67.4375 73.699219 65.414063 C 74.195313 65.425781 74.996094 65.46875 76.457031 65.40625 C 74.933594 66.210938 74.242188 68.105469 73.464844 68.078125 M 88.023438 59.578125 C 89.375 58.054688 88.125 55.953125 82.546875 55.253906 C 88.363281 58.105469 78.996094 58.699219 78.675781 63.59375 C 75.617188 64.8125 73.167969 62.808594 71.65625 64.183594 C 70.191406 65.5 68.492188 64.617188 68.988281 63.054688 C 67.222656 63.976563 67.570313 66.363281 69.292969 67.101563 C 69.636719 67.277344 69.933594 67.601563 69.679688 67.84375 C 67.804688 69.609375 66.921875 71.152344 68.878906 72.914063 C 69.957031 70.925781 70.496094 70.238281 71.699219 69.234375 C 72.824219 70.011719 74.800781 69.488281 77.472656 66.574219 C 77.597656 66.425781 77.773438 66.492188 77.707031 66.660156 C 75.597656 73.941406 70.191406 75.132813 68.453125 74.777344 C 69.507813 76.34375 76.375 77.320313 77.230469 74.242188 C 79.195313 67.328125 85.863281 64.3125 80.097656 64.425781 C 81.648438 62.605469 86.898438 60.882813 88.023438 59.578125 "/>
<path style=" stroke:none;fill-rule:nonzero;fill:rgb(13.299561%,11.799622%,12.199402%);fill-opacity:1;" d="M 90.925781 55.859375 C 93.722656 57.644531 95.015625 58.855469 96.847656 61.019531 C 97.191406 58.0625 95.511719 52.191406 93.035156 50.851563 C 91.960938 50.261719 90.40625 54.351563 90.925781 55.859375 "/>
<path style=" stroke:none;fill-rule:nonzero;fill:rgb(13.299561%,11.799622%,12.199402%);fill-opacity:1;" d="M 46.40625 79.582031 C 48.191406 74.863281 52.585938 69.222656 59.6875 64.992188 C 61.324219 60.773438 60.785156 57.882813 77.988281 51.226563 C 78.417969 48.679688 78.332031 45.644531 79.066406 45.644531 C 79.796875 45.644531 82.335938 46.761719 84.144531 49.390625 C 84.898438 49.308594 85.566406 49.226563 86.035156 49.164063 C 86.339844 47.675781 87.371094 43.605469 88.710938 41.519531 C 89.953125 39.582031 92.34375 39.386719 95.425781 41.914063 C 98.632813 44.546875 100.890625 45.621094 105.28125 51.226563 C 108.984375 52.894531 114.796875 55.027344 119.816406 61.175781 C 117.640625 59.746094 115.164063 59.203125 113.140625 58.957031 C 117.230469 62.550781 119.941406 68.472656 117.875 77.136719 C 117.078125 69.039063 111.117188 65.664063 107.480469 63.078125 C 109.460938 69.914063 100.890625 67.558594 98.289063 62.429688 C 99.144531 62.703125 100.03125 62.660156 100.566406 62.316406 C 100.289063 51.875 95.378906 45.878906 93.1875 44.046875 C 90.386719 41.738281 88.878906 47.320313 87.929688 51.539063 C 87.628906 52.949219 86.421875 53.9375 84.898438 53.886719 C 85.242188 53.382813 85.628906 52.027344 85.691406 51.609375 C 81.367188 51.9375 76.480469 54.5 73.488281 55.847656 C 65.886719 59.28125 63.976563 61.007813 62.292969 66.789063 C 56.269531 69.320313 49.3125 76.296875 46.40625 79.582031 "/>
<path style=" stroke:none;fill-rule:nonzero;fill:rgb(13.299561%,11.799622%,12.199402%);fill-opacity:1;" d="M 84.359375 78.148438 C 85.199219 79.09375 90.214844 86.671875 84.402344 96.324219 C 85.996094 89.234375 81.582031 75.664063 76.699219 82.59375 C 80.011719 84.035156 81.085938 86.726563 80.203125 89.34375 C 78.851563 86.824219 75.402344 84.097656 72.003906 85.230469 C 70.300781 85.800781 68.039063 85.8125 66.363281 83.324219 C 64.164063 80.101563 67.84375 76.125 61.5625 76.445313 C 69.160156 72.59375 66.964844 80.082031 70.625 80.96875 C 74.886719 81.992188 75.382813 79.363281 76.84375 77.664063 C 78.03125 76.265625 80.203125 75.1875 82.484375 76.695313 C 83.582031 73.363281 81.992188 68.128906 85.089844 65.347656 C 86.234375 64.328125 89.890625 64.445313 91.785156 65.960938 C 89.097656 65.90625 85.933594 69.113281 84.359375 78.148438 "/>
<path style=" stroke:none;fill-rule:nonzero;fill:rgb(13.299561%,11.799622%,12.199402%);fill-opacity:1;" d="M 67.003906 108.75 C 66.660156 108.445313 65.652344 107.136719 65.742188 105.726563 C 67.003906 106.550781 68.75 106.9375 68.75 106.9375 C 68.75 106.9375 67.933594 108.347656 67.003906 108.75 M 74.652344 100.410156 C 75.402344 100.480469 76.050781 101.109375 76.738281 100.613281 C 77.40625 100.117188 76.71875 98.078125 76.195313 97.425781 C 76.84375 97.296875 79.492188 97.558594 79.363281 98.523438 C 79.042969 101 77.492188 101.796875 73.699219 103.636719 C 74.347656 103.03125 74.242188 101.71875 74.652344 100.410156 M 59.535156 98.351563 C 59.859375 97.578125 61.300781 96.585938 61.949219 96.523438 C 61.710938 98.695313 62.488281 101.652344 62.488281 101.652344 C 62.488281 101.652344 59.558594 99.8125 59.535156 98.351563 M 49.894531 88.699219 C 48.515625 87.71875 46.34375 85.5 46.125 84.667969 C 46.386719 84.359375 47.546875 83.089844 49.011719 82.6875 C 50.089844 82.402344 50.777344 83 50.628906 83.347656 C 50.476563 83.691406 49.53125 83.691406 49.246094 84.511719 C 48.820313 85.78125 50.199219 86.136719 50.476563 86.703125 C 50.648438 87.070313 51.011719 87.964844 49.894531 88.699219 M 123.195313 64.894531 C 127.066406 78.386719 125.96875 91.375 121.988281 99.125 C 122.484375 94.261719 118.21875 87.152344 119.941406 78.851563 C 111.847656 86.703125 124.484375 105.972656 106.144531 118.605469 C 108.878906 114.207031 110.128906 103.230469 109.15625 99.246094 C 110.128906 99.621094 111.117188 100.835938 111.742188 101.859375 C 113.269531 96.847656 113.464844 89.6875 110.578125 82.484375 C 111.570313 82.605469 113.632813 83.519531 114.585938 84.421875 C 115.03125 73.261719 106.875 72.421875 105.351563 69.386719 C 105.351563 72.644531 109.15625 75.390625 109.847656 79.644531 C 107.179688 78.386719 105.238281 78.234375 103.859375 78.386719 C 105.929688 79.875 110.515625 88.761719 109.15625 95.898438 C 107.179688 94.226563 105.351563 93.464844 103.363281 93.316406 C 105.800781 96.992188 106.789063 106.648438 103.753906 111.050781 C 103.667969 110.058594 103.304688 107.175781 102.164063 105.972656 C 100.722656 111.367188 96.503906 113.652344 93.613281 114.324219 C 97.214844 110.566406 96.503906 103.917969 91.25 102.117188 C 86.511719 100.492188 80.484375 103.710938 78.050781 115 C 74.628906 116.003906 64.363281 113.800781 70.492188 107.199219 C 74.242188 108.457031 83.757813 102.074219 83.113281 97.621094 C 82.203125 91.40625 76.542969 89.222656 72.042969 89.273438 C 66.492188 89.34375 62.742188 94.519531 58.207031 96.777344 C 54.414063 96.199219 53.121094 95.660156 51.1875 90.609375 C 50.949219 87.519531 54.242188 85.347656 54.175781 82.160156 C 51.488281 82.734375 50.820313 78.671875 45.566406 82.871094 C 45.15625 82.109375 45.847656 80.3125 45.847656 80.3125 C 43.910156 82.054688 43.542969 84.144531 43.503906 84.574219 C 44.449219 86.445313 45.78125 88.144531 48.363281 89.839844 C 51.464844 98.109375 54.648438 99.039063 57.921875 99.34375 C 58.480469 100.136719 60.914063 103.039063 63.996094 103.496094 C 63.476563 101.945313 63.390625 97.558594 63.714844 96.457031 C 70.429688 89.730469 75.421875 93.828125 76.070313 95.613281 C 70.109375 96.847656 74.328125 109.613281 64.425781 103.929688 C 64.019531 105.230469 64.574219 108.492188 65.824219 110.382813 C 66.839844 119.136719 77.835938 116.984375 81.238281 118.519531 C 80.871094 110.027344 85.566406 103.820313 89.609375 104.324219 C 93.660156 104.84375 94.71875 111.449219 87.800781 117.707031 C 89.503906 118.605469 96.910156 117.363281 100.675781 114.625 C 101.019531 116.789063 98.246094 123.167969 94.777344 127.660156 C 123.816406 121.007813 136.800781 89.503906 123.195313 64.894531 "/>
<path style=" stroke:none;fill-rule:nonzero;fill:rgb(13.299561%,11.799622%,12.199402%);fill-opacity:1;" d="M 155.078125 192.492188 L 163.191406 192.492188 L 163.191406 144.683594 L 155.078125 144.683594 Z M 155.078125 192.492188 "/>
<path style=" stroke:none;fill-rule:nonzero;fill:rgb(13.299561%,11.799622%,12.199402%);fill-opacity:1;" d="M 198.644531 192.492188 L 206.757813 192.492188 L 206.757813 144.683594 L 198.644531 144.683594 Z M 198.644531 192.492188 "/>
<path style=" stroke:none;fill-rule:nonzero;fill:rgb(13.299561%,11.799622%,12.199402%);fill-opacity:1;" d="M 180.628906 193.425781 C 174.953125 193.425781 171.078125 191.558594 168.925781 190.054688 L 171.726563 184.597656 C 173.015625 185.53125 176.316406 187.46875 180.269531 187.46875 C 184.214844 187.46875 186.585938 186.03125 186.585938 183.449219 C 186.585938 180.71875 183.355469 179.785156 178.328125 177.488281 C 173.230469 175.191406 169.785156 172.609375 169.785156 167.078125 C 169.785156 161.050781 174.453125 156.886719 181.847656 156.886719 C 187.734375 156.886719 191.253906 159.039063 192.617188 159.902344 L 189.601563 165.210938 C 188.308594 164.351563 185.652344 162.84375 182.0625 162.84375 C 178.546875 162.84375 176.820313 164.28125 176.820313 166.648438 C 176.820313 169.449219 179.835938 170.382813 183.714844 171.960938 C 189.3125 174.257813 193.765625 176.773438 193.765625 182.65625 C 193.765625 189.480469 188.738281 193.425781 180.628906 193.425781 "/>
<path style=" stroke:none;fill-rule:nonzero;fill:rgb(13.299561%,11.799622%,12.199402%);fill-opacity:1;" d="M 231.164063 176.628906 L 229.800781 176.628906 C 223.410156 176.628906 218.890625 178.421875 218.890625 183.304688 C 218.890625 186.316406 221.328125 187.46875 223.484375 187.46875 C 227.644531 187.46875 230.085938 184.8125 231.164063 183.59375 Z M 232.097656 192.492188 C 231.882813 191.558594 231.59375 189.621094 231.523438 188.546875 C 230.015625 190.480469 226.570313 193.355469 221.472656 193.355469 C 215.65625 193.355469 211.277344 189.765625 211.277344 183.734375 C 211.277344 174.6875 220.96875 171.601563 229.800781 171.601563 L 231.164063 171.601563 L 231.164063 169.089844 C 231.164063 165.429688 229.800781 163.132813 224.917969 163.132813 C 220.253906 163.132813 217.308594 165.644531 216.015625 166.648438 L 212.425781 161.769531 C 214.363281 160.042969 218.527344 156.886719 225.707031 156.886719 C 234.324219 156.886719 238.773438 160.546875 238.773438 169.160156 L 238.773438 183.304688 C 238.773438 187.398438 239.203125 190.554688 239.636719 192.492188 "/>
<path style=" stroke:none;fill-rule:nonzero;fill:rgb(13.299561%,11.799622%,12.199402%);fill-opacity:1;" d="M 283.714844 156.886719 C 290.894531 156.886719 293.546875 161.695313 293.546875 167.941406 L 293.546875 192.492188 L 285.9375 192.492188 L 285.9375 169.519531 C 285.9375 165.714844 284.863281 163.417969 281.128906 163.417969 C 277.46875 163.417969 274.8125 166.289063 273.378906 168.082031 L 273.378906 192.492188 L 265.765625 192.492188 L 265.765625 169.519531 C 265.765625 165.644531 264.402344 163.417969 261.027344 163.417969 C 256.863281 163.417969 253.992188 167.65625 253.273438 168.585938 L 253.273438 192.492188 L 245.59375 192.492188 L 245.59375 157.746094 L 253.128906 157.746094 L 253.128906 162.34375 C 254.78125 160.332031 257.941406 156.886719 263.683594 156.886719 C 268.566406 156.886719 271.296875 159.253906 272.585938 162.558594 C 275.3125 159.46875 278.6875 156.886719 283.714844 156.886719 "/>
<path style=" stroke:none;fill-rule:nonzero;fill:rgb(13.299561%,11.799622%,12.199402%);fill-opacity:1;" d="M 301.011719 157.746094 L 308.695313 157.746094 L 308.695313 192.492188 L 301.011719 192.492188 Z M 304.816406 152.363281 C 302.019531 152.363281 299.863281 150.136719 299.863281 147.480469 C 299.863281 144.824219 302.019531 142.601563 304.816406 142.601563 C 307.691406 142.601563 309.84375 144.824219 309.84375 147.480469 C 309.84375 150.136719 307.691406 152.363281 304.816406 152.363281 "/>
<path style=" stroke:none;fill-rule:nonzero;fill:rgb(13.299561%,11.799622%,12.199402%);fill-opacity:1;" d="M 330.660156 193.355469 C 319.964844 193.355469 313.71875 185.386719 313.71875 175.121094 C 313.71875 163.34375 321.257813 156.882813 330.949219 156.882813 C 336.621094 156.882813 339.925781 158.824219 341.574219 159.972656 L 338.773438 165.355469 C 337.050781 164.207031 334.824219 162.917969 331.09375 162.917969 C 324.773438 162.917969 321.761719 167.941406 321.761719 174.90625 C 321.761719 181.796875 324.773438 187.25 331.234375 187.25 C 335.398438 187.25 338.128906 185.457031 339.203125 184.8125 L 341.71875 190.050781 C 340.28125 191.203125 336.90625 193.355469 330.660156 193.355469 "/>
</g>
</svg>
